# xmcd
#
# Track frame offsets: 
#        150
#        29507
#        60118
#        87051
#        118024
#        155962
#
# Disc length: 2513 seconds
#
# Revision: 0
# Processed by: cddbd v1.5.2PL0 Copyright (c) Steve Scherf et al.
# Submitted via: ExactAudioCopy v1.0b4
#
DISCID=4409cf06
DTITLE=Charlie Musselwhite - Lahnsteiner Blues Festival
DYEAR=2007
DGENRE=Blues
TTITLE0=Strange Land
TTITLE1=Black Wate
TTITLE2=Church Is Ou
TTITLE3=Black Night Is Falling
TTITLE4=Long Legged Woman
TTITLE5=Christo Redemptor
EXTD=
EXTT0=
EXTT1=
EXTT2=
EXTT3=
EXTT4=
EXTT5=
PLAYORDER=
